<svg xmlns="http://www.w3.org/2000/svg" viewBox="0 0 300 400" preserveAspectRatio="xMidYMid slice" role="img" aria-label="TrendFlow">
  <defs>
    <linearGradient id="bg" x1="0" y1="0" x2="0.35" y2="1">
      <stop offset="0" stop-color="#6a1b28"/>
      <stop offset="0.55" stop-color="#3c1018"/>
      <stop offset="1" stop-color="#22070d"/>
    </linearGradient>
    <linearGradient id="fig" x1="0" y1="0" x2="0" y2="1">
      <stop offset="0" stop-color="#db7d88"/>
      <stop offset="1" stop-color="#7e2f3a"/>
    </linearGradient>
  </defs>
  <rect width="300" height="400" fill="url(#bg)"/>
  <g fill="url(#fig)">
    <circle cx="150" cy="156" r="60"/>
    <path d="M50 400 C50 294 95 244 150 244 C205 244 250 294 250 400 Z"/>
  </g>
  <g transform="translate(192 298)">
    <rect x="0" y="20" width="66" height="48" rx="5" fill="#f0c2c8"/>
    <rect x="0" y="20" width="66" height="13" fill="#e6aeb6"/>
    <g transform="rotate(-10 33 9)">
      <rect x="-2" y="1" width="70" height="16" rx="3" fill="#2a0a10"/>
      <g fill="#f0c2c8">
        <polygon points="2,1 13,1 6,17 -2,17"/>
        <polygon points="24,1 35,1 28,17 17,17"/>
        <polygon points="46,1 57,1 50,17 39,17"/>
        <polygon points="66,1 68,1 68,17 61,17"/>
      </g>
    </g>
  </g>
</svg>
